<svg width="134.363427734375px" height="80px" xmlns="http://www.w3.org/2000/svg" viewBox="182.8182861328125 35 134.363427734375 80" style="background: rgba(0, 0, 0, 0);" preserveAspectRatio="xMidYMid"><defs><linearGradient id="editing-sticker-gradient" x1="0.5" y1="0.2" x2="0.5" y2="0.8"><stop offset="0" stop-color="#fd9"></stop><stop offset="1" stop-color="#9df"></stop></linearGradient><filter id="editing-sticker" x="-100%" y="-100%" width="300%" height="300%"><feMorphology operator="erode" radius="1" in="SourceAlpha" result="alpha-erode"></feMorphology><feConvolveMatrix order="3,3" divisor="1" kernelMatrix="0 1 0 1 1 1 0 1 0" in="alpha-erode" result="alpha-round"></feConvolveMatrix><feMorphology operator="dilate" radius="3.5" in="alpha-round" result="dilate-shadow"></feMorphology><feGaussianBlur in="dilate-shadow" stdDeviation="1.5" result="shadow"></feGaussianBlur><feFlood flood-color="#fff" result="flood-sticker"></feFlood><feComposite operator="in" in="flood-sticker" in2="alpha-round" result="comp-sticker"></feComposite><feMorphology operator="dilate" radius="3" in="comp-sticker" result="morph-sticker"></feMorphology><feConvolveMatrix order="3,3" divisor="1" kernelMatrix="0 1 0 1 1 1 0 1 0" in="morph-sticker" result="sticker"></feConvolveMatrix><feMerge><feMergeNode in="shadow"></feMergeNode><feMergeNode in="sticker"></feMergeNode><feMergeNode in="SourceGraphic"></feMergeNode></feMerge></filter></defs><g filter="url(#editing-sticker)"><g transform="translate(208.36915007978678, 88.3000020980835)"><path d="M15.47-17.56L15.47-17.56L15.47-17.56Q16.04-18.70 16.04-19.76L16.04-19.76L16.04-19.76Q16.04-20.82 15.92-21.41L15.92-21.41L15.92-21.41Q15.81-22.00 15.54-22.46L15.54-22.46L15.54-22.46Q14.97-23.45 13.83-23.45L13.83-23.45L13.83-23.45Q12.43-23.45 11.29-22.42L11.29-22.42L11.29-22.42Q10.07-21.36 10.07-19.68L10.07-19.68L10.07-19.68Q10.07-18.62 10.81-17.80L10.81-17.80L10.81-17.80Q11.55-16.99 12.69-16.23L12.69-16.23L12.69-16.23Q13.83-15.47 15.12-14.71L15.12-14.71L15.12-14.71Q16.42-13.95 17.56-13.03L17.56-13.03L17.56-13.03Q20.18-10.94 20.18-8.13L20.18-8.13L20.18-8.13Q20.18-6.23 19.17-4.62L19.17-4.62L19.17-4.62Q18.16-3.00 16.49-1.82L16.49-1.82L16.49-1.82Q12.84 0.76 8.02 0.76L8.02 0.76L8.02 0.76Q4.10 0.76 2.09-0.51L2.09-0.51L2.09-0.51Q0.08-1.79 0.08-3.72L0.08-3.72L0.08-3.72Q0.08-7.18 2.77-8.06L2.77-8.06L2.77-8.06Q3.53-8.32 4.69-8.32L4.69-8.32L4.69-8.32Q5.85-8.32 7.18-7.83L7.18-7.83L7.18-7.83Q6.57-6.27 6.57-4.86L6.57-4.86L6.57-4.86Q6.57-1.82 8.74-1.82L8.74-1.82L8.74-1.82Q10.15-1.82 11.30-2.85L11.30-2.85L11.30-2.85Q12.46-3.88 12.46-5.04L12.46-5.04L12.46-5.04Q12.46-6.19 11.72-7.03L11.72-7.03L11.72-7.03Q10.98-7.87 9.88-8.53L9.88-8.53L9.88-8.53Q8.78-9.20 7.50-9.84L7.50-9.84L7.50-9.84Q6.23-10.49 5.13-11.40L5.13-11.40L5.13-11.40Q2.55-13.49 2.55-16.83L2.55-16.83L2.55-16.83Q2.55-19 3.61-20.69L3.61-20.69L3.61-20.69Q4.67-22.38 6.38-23.52L6.38-23.52L6.38-23.52Q9.80-25.84 14.00-25.84L14.00-25.84L14.00-25.84Q18.20-25.84 20.23-24.59L20.23-24.59L20.23-24.59Q22.27-23.33 22.27-21.20L22.27-21.20L22.27-21.20Q22.27-19.34 20.82-18.16L20.82-18.16L20.82-18.16Q19.57-17.18 18.05-17.18L18.05-17.18L18.05-17.18Q16.53-17.18 15.47-17.56ZM30.93 0L22.65 0L27.47-25.08L35.83-25.08L30.93 0ZM40.58 0L36.40 0L40.96-25.08L49.13-25.08L55.06-7.83L58.22-25.08L62.43-25.04L57.80 0L49.10 0L43.62-16.61L40.58 0ZM79.61-5.85L79.61-5.85L79.61-5.85Q80.33-4.94 80.33-3.46L80.33-3.46L80.33-3.46Q80.33-1.41 78.81-0.32L78.81-0.32L78.81-0.32Q77.29 0.76 74.90 0.76L74.90 0.76L74.90 0.76Q73.53 0.76 71.44 0.46L71.44 0.46L71.44 0.46Q67.34-0.19 66.08-0.19L66.08-0.19L66.08-0.19Q64.83-0.19 64.33-0.13L64.33-0.13L64.33-0.13Q63.84-0.08 63.04 0L63.04 0L67.72-25.08L84.09-25.08L84.09-25.08Q84.09-22.76 82.97-21.55L82.97-21.55L82.97-21.55Q81.85-20.33 79.65-20.33L79.65-20.33L79.65-20.33Q77.44-20.33 75.20-21.36L75.20-21.36L74.02-14.71L80.79-14.71L80.79-14.71Q80.79-12.69 79.80-11.57L79.80-11.57L79.80-11.57Q78.81-10.45 77.16-10.45L77.16-10.45L77.16-10.45Q75.51-10.45 74.48-10.83L74.48-10.83L74.48-10.83Q73.45-11.21 73.34-11.32L73.34-11.32L71.97-4.14L71.97-4.14Q72.88-4.03 74.59-4.03L74.59-4.03L74.59-4.03Q77.52-4.03 79.61-5.85Z" fill="url(#editing-sticker-gradient)" stroke="#000" stroke-width="2.5"></path></g></g><style>text {
  font-size: 64px;
  font-family: Arial Black;
  dominant-baseline: central;
  text-anchor: middle;
}</style></svg>