<svg width="141.91257324218748px" height="80px" xmlns="http://www.w3.org/2000/svg" viewBox="179.04371337890626 35 141.91257324218748 80" style="background: rgba(0, 0, 0, 0);" preserveAspectRatio="xMidYMid"><defs><linearGradient id="editing-sticker-gradient" x1="0.5" y1="0.2" x2="0.5" y2="0.8"><stop offset="0" stop-color="#fd9"></stop><stop offset="1" stop-color="#9df"></stop></linearGradient><filter id="editing-sticker" x="-100%" y="-100%" width="300%" height="300%"><feMorphology operator="erode" radius="1" in="SourceAlpha" result="alpha-erode"></feMorphology><feConvolveMatrix order="3,3" divisor="1" kernelMatrix="0 1 0 1 1 1 0 1 0" in="alpha-erode" result="alpha-round"></feConvolveMatrix><feMorphology operator="dilate" radius="3.5" in="alpha-round" result="dilate-shadow"></feMorphology><feGaussianBlur in="dilate-shadow" stdDeviation="1.5" result="shadow"></feGaussianBlur><feFlood flood-color="#fff" result="flood-sticker"></feFlood><feComposite operator="in" in="flood-sticker" in2="alpha-round" result="comp-sticker"></feComposite><feMorphology operator="dilate" radius="3" in="comp-sticker" result="morph-sticker"></feMorphology><feConvolveMatrix order="3,3" divisor="1" kernelMatrix="0 1 0 1 1 1 0 1 0" in="morph-sticker" result="sticker"></feConvolveMatrix><feMerge><feMergeNode in="shadow"></feMergeNode><feMergeNode in="sticker"></feMergeNode><feMergeNode in="SourceGraphic"></feMergeNode></feMerge></filter></defs><g filter="url(#editing-sticker)"><g transform="translate(204.9350197315216, 88.34000205993652)"><path d="M3.69-18.51L3.69-18.51L3.69-18.51Q2.39-19.49 2.39-21.60L2.39-21.60L2.39-21.60Q2.39-23.71 3.78-24.81L3.78-24.81L3.78-24.81Q5.17-25.92 7.56-25.92L7.56-25.92L7.56-25.92Q9.08-25.92 12.69-25.38L12.69-25.38L15.28-25.00L15.28-25.00Q16.57-24.85 17.92-24.85L17.92-24.85L17.92-24.85Q19.27-24.85 20.18-25.42L20.18-25.42L20.18-25.42Q21.55-24.21 21.55-22.46L21.55-22.46L21.55-22.46Q21.55-20.71 19.99-19.46L19.99-19.46L19.99-19.46Q18.39-18.13 16.34-18.13L16.34-18.13L16.34-18.13Q15.35-18.13 13.76-18.39L13.76-18.39L13.76-18.39Q11.89-12.54 11.89-8.47L11.89-8.47L11.89-8.47Q11.89-4.41 13.95-2.28L13.95-2.28L13.95-2.28Q13.00-0.57 11.59 0.10L11.59 0.10L11.59 0.10Q10.18 0.76 8.07 0.76L8.07 0.76L8.07 0.76Q5.97 0.76 4.66-0.40L4.66-0.40L4.66-0.40Q3.34-1.56 3.34-3.95L3.34-3.95L3.34-3.95Q3.34-6.73 4.86-11.29L4.86-11.29L4.86-11.29Q6.38-15.81 8.66-19.27L8.66-19.27L8.66-19.27Q7.56-19.38 6.42-19.38L6.42-19.38L6.42-19.38Q4.07-19.38 3.69-18.51ZM28.12 0L19.99 0L24.62-24.97L24.62-24.97Q28.39-25.38 33.88-25.38L33.88-25.38L33.88-25.38Q39.37-25.38 41.91-23.79L41.91-23.79L41.91-23.79Q44.46-22.19 44.46-18.98L44.46-18.98L44.46-18.98Q44.46-15.77 42.81-13.76L42.81-13.76L42.81-13.76Q41.15-11.74 38.30-11.10L38.30-11.10L38.30-11.10Q38.95-7.94 40.43-5.40L40.43-5.40L40.43-5.40Q41.80-3.00 43.40-2.24L43.40-2.24L43.40-2.24Q42.83-0.65 41.67 0.06L41.67 0.06L41.67 0.06Q40.51 0.76 38.86 0.76L38.86 0.76L38.86 0.76Q37.20 0.76 35.91-0.21L35.91-0.21L35.91-0.21Q34.62-1.18 33.59-2.96L33.59-2.96L33.59-2.96Q31.43-6.84 31.20-12.96L31.20-12.96L31.46-12.96L31.46-12.96Q34.28-13.03 35.68-14.50L35.68-14.50L35.68-14.50Q37.09-15.96 37.09-19.04L37.09-19.04L37.09-19.04Q37.09-22.88 33.86-23.03L33.86-23.03L33.02-23.03L33.02-23.03Q32.68-23.03 32.49-22.99L32.49-22.99L28.12 0ZM61.60-12.24L69.27-12.92L69.27-12.92Q66.54-6.92 66.54 0.04L66.54 0.04L66.54 0.04Q65.51 0.76 64.01 0.76L64.01 0.76L64.01 0.76Q62.51 0.76 61.56 0.06L61.56 0.06L61.56 0.06Q60.61-0.65 60.42-1.37L60.42-1.37L60.42-1.37Q59.47-0.38 57.93 0.19L57.93 0.19L57.93 0.19Q56.39 0.76 54.76 0.76L54.76 0.76L54.76 0.76Q53.12 0.76 51.70 0.23L51.70 0.23L51.70 0.23Q50.27-0.30 49.17-1.48L49.17-1.48L49.17-1.48Q46.74-4.07 46.74-8.97L46.74-8.97L46.74-8.97Q46.74-16.57 50.81-21.13L50.81-21.13L50.81-21.13Q54.99-25.84 62.40-25.84L62.40-25.84L62.40-25.84Q67.53-25.84 69.35-23.18L69.35-23.18L69.35-23.18Q69.92-22.34 69.92-21.34L69.92-21.34L69.92-21.34Q69.92-20.33 69.48-19.47L69.48-19.47L69.48-19.47Q69.05-18.62 68.36-17.94L68.36-17.94L68.36-17.94Q66.73-16.42 64.71-16.42L64.71-16.42L64.71-16.42Q63.92-16.42 63.16-16.68L63.16-16.68L63.16-16.68Q63.31-17.82 63.31-19.15L63.31-19.15L63.31-19.15Q63.31-20.48 63.21-21.09L63.21-21.09L63.21-21.09Q63.12-21.70 62.89-22.19L62.89-22.19L62.89-22.19Q62.40-23.22 61.31-23.22L61.31-23.22L61.31-23.22Q60.23-23.22 59.03-22.06L59.03-22.06L59.03-22.06Q57.84-20.90 56.89-19L56.89-19L56.89-19Q54.80-14.74 54.80-9.61L54.80-9.61L54.80-9.61Q54.80-7.26 55.71-5.59L55.71-5.59L55.71-5.59Q56.70-3.76 58.44-3.76L58.44-3.76L58.44-3.76Q59.05-3.76 59.60-4.07L59.60-4.07L59.60-4.07Q60.15-4.37 60.38-4.60L60.38-4.60L61.60-12.24ZM87.02-5.85L87.02-5.85L87.02-5.85Q87.74-4.94 87.74-3.17L87.74-3.17L87.74-3.17Q87.74-1.41 86.39-0.32L86.39-0.32L86.39-0.32Q85.04 0.76 82.69 0.76L82.69 0.76L82.69 0.76Q81.32 0.76 79.19 0.46L79.19 0.46L79.19 0.46Q75.01-0.19 73.81-0.19L73.81-0.19L73.81-0.19Q72.62-0.19 72.12-0.13L72.12-0.13L72.12-0.13Q71.63-0.08 70.83 0L70.83 0L75.43-25.08L83.75-25.08L79.95-4.18L79.95-4.18Q80.45-4.10 80.90-4.10L80.90-4.10L81.85-4.10L81.85-4.10Q85.04-4.10 87.02-5.85Z" fill="url(#editing-sticker-gradient)" stroke="#000" stroke-width="2.5"></path></g></g><style>text {
  font-size: 64px;
  font-family: Arial Black;
  dominant-baseline: central;
  text-anchor: middle;
}</style></svg>