<svg width="159.06875px" height="80px" xmlns="http://www.w3.org/2000/svg" viewBox="170.465625 35 159.06875 80" style="background: rgba(0, 0, 0, 0);" preserveAspectRatio="xMidYMid"><defs><linearGradient id="editing-sticker-gradient" x1="0.5" y1="0.2" x2="0.5" y2="0.8"><stop offset="0" stop-color="#fd9"></stop><stop offset="1" stop-color="#9df"></stop></linearGradient><filter id="editing-sticker" x="-100%" y="-100%" width="300%" height="300%"><feMorphology operator="erode" radius="1" in="SourceAlpha" result="alpha-erode"></feMorphology><feConvolveMatrix order="3,3" divisor="1" kernelMatrix="0 1 0 1 1 1 0 1 0" in="alpha-erode" result="alpha-round"></feConvolveMatrix><feMorphology operator="dilate" radius="3.5" in="alpha-round" result="dilate-shadow"></feMorphology><feGaussianBlur in="dilate-shadow" stdDeviation="1.5" result="shadow"></feGaussianBlur><feFlood flood-color="#fff" result="flood-sticker"></feFlood><feComposite operator="in" in="flood-sticker" in2="alpha-round" result="comp-sticker"></feComposite><feMorphology operator="dilate" radius="3" in="comp-sticker" result="morph-sticker"></feMorphology><feConvolveMatrix order="3,3" divisor="1" kernelMatrix="0 1 0 1 1 1 0 1 0" in="morph-sticker" result="sticker"></feConvolveMatrix><feMerge><feMergeNode in="shadow"></feMergeNode><feMergeNode in="sticker"></feMergeNode><feMergeNode in="SourceGraphic"></feMergeNode></feMerge></filter></defs><g filter="url(#editing-sticker)"><g transform="translate(199.3650123476982, 88.15000247955322)"><path d="M8.44 0L0.30 0L4.94-24.97L4.94-24.97Q8.70-25.38 14.19-25.38L14.19-25.38L14.19-25.38Q19.68-25.38 22.23-23.79L22.23-23.79L22.23-23.79Q24.78-22.19 24.78-18.98L24.78-18.98L24.78-18.98Q24.78-15.77 23.12-13.76L23.12-13.76L23.12-13.76Q21.47-11.74 18.62-11.10L18.62-11.10L18.62-11.10Q19.27-7.94 20.75-5.40L20.75-5.40L20.75-5.40Q22.12-3.00 23.71-2.24L23.71-2.24L23.71-2.24Q23.14-0.65 21.98 0.06L21.98 0.06L21.98 0.06Q20.82 0.76 19.17 0.76L19.17 0.76L19.17 0.76Q17.52 0.76 16.23-0.21L16.23-0.21L16.23-0.21Q14.93-1.18 13.91-2.96L13.91-2.96L13.91-2.96Q11.74-6.84 11.51-12.96L11.51-12.96L11.78-12.96L11.78-12.96Q14.59-13.03 16.00-14.50L16.00-14.50L16.00-14.50Q17.40-15.96 17.40-19.04L17.40-19.04L17.40-19.04Q17.40-22.88 14.17-23.03L14.17-23.03L13.34-23.03L13.34-23.03Q13.00-23.03 12.81-22.99L12.81-22.99L8.44 0ZM43.21 0.76L43.21 0.76L43.21 0.76Q38.34 0.76 37.89-6.16L37.89-6.16L31.35-6.16L31.35-6.16Q30.59-4.41 30.06-2.89L30.06-2.89L29.07 0L23.75 0L35.72-25.08L43.89-25.08L45.49-6.61L45.49-6.61Q45.87-2.62 47.39-1.44L47.39-1.44L47.39-1.44Q46.28 0.76 43.21 0.76ZM34.62-13.76L32.53-8.93L37.77-8.93L37.32-18.70L37.32-19.72L34.62-13.76ZM53.50 0L49.32 0L53.88-25.08L62.05-25.08L67.98-7.83L71.14-25.08L75.35-25.04L70.72 0L62.02 0L56.54-16.61L53.50 0ZM100.97-15.77L100.97-15.77L100.97-15.77Q100.97 0.42 83.41 0.42L83.41 0.42L83.41 0.42Q80.60 0.42 75.96-0.27L75.96-0.27L80.22-22.72L80.22-22.72Q80.52-24.24 80.71-25.12L80.71-25.12L80.71-25.12Q86.49-25.54 89.05-25.54L89.05-25.54L89.05-25.54Q91.62-25.54 93.97-25.00L93.97-25.00L93.97-25.00Q96.33-24.47 97.89-23.29L97.89-23.29L97.89-23.29Q100.97-20.98 100.97-15.77ZM93.14-17.18L93.14-17.18L93.14-17.18Q93.14-22.84 89.07-22.84L89.07-22.84L88.69-22.84L88.69-22.84Q88.50-22.84 88.31-22.80L88.31-22.80L84.40-2.39L84.40-2.39Q84.55-2.32 84.70-2.32L84.70-2.32L85.01-2.32L85.01-2.32Q86.41-2.32 87.88-3.19L87.88-3.19L87.88-3.19Q89.34-4.07 90.48-5.85L90.48-5.85L90.48-5.85Q93.14-9.99 93.14-17.18Z" fill="url(#editing-sticker-gradient)" stroke="#000" stroke-width="2.5"></path></g></g><style>text {
  font-size: 64px;
  font-family: Arial Black;
  dominant-baseline: central;
  text-anchor: middle;
}</style></svg>