<svg width="160.66755371093748px" height="80px" xmlns="http://www.w3.org/2000/svg" viewBox="169.66622314453127 35 160.66755371093748 80" style="background: rgba(0, 0, 0, 0);" preserveAspectRatio="xMidYMid"><defs><linearGradient id="editing-sticker-gradient" x1="0.5" y1="0.2" x2="0.5" y2="0.8"><stop offset="0" stop-color="#fd9"></stop><stop offset="1" stop-color="#9df"></stop></linearGradient><filter id="editing-sticker" x="-100%" y="-100%" width="300%" height="300%"><feMorphology operator="erode" radius="1" in="SourceAlpha" result="alpha-erode"></feMorphology><feConvolveMatrix order="3,3" divisor="1" kernelMatrix="0 1 0 1 1 1 0 1 0" in="alpha-erode" result="alpha-round"></feConvolveMatrix><feMorphology operator="dilate" radius="3.5" in="alpha-round" result="dilate-shadow"></feMorphology><feGaussianBlur in="dilate-shadow" stdDeviation="1.5" result="shadow"></feGaussianBlur><feFlood flood-color="#fff" result="flood-sticker"></feFlood><feComposite operator="in" in="flood-sticker" in2="alpha-round" result="comp-sticker"></feComposite><feMorphology operator="dilate" radius="3" in="comp-sticker" result="morph-sticker"></feMorphology><feConvolveMatrix order="3,3" divisor="1" kernelMatrix="0 1 0 1 1 1 0 1 0" in="morph-sticker" result="sticker"></feConvolveMatrix><feMerge><feMergeNode in="shadow"></feMergeNode><feMergeNode in="sticker"></feMergeNode><feMergeNode in="SourceGraphic"></feMergeNode></feMerge></filter></defs><g filter="url(#editing-sticker)"><g transform="translate(198.65901366621256, 88.34000205993652)"><path d="M15.47-17.56L15.47-17.56L15.47-17.56Q16.04-18.70 16.04-19.76L16.04-19.76L16.04-19.76Q16.04-20.82 15.92-21.41L15.92-21.41L15.92-21.41Q15.81-22.00 15.54-22.46L15.54-22.46L15.54-22.46Q14.97-23.45 13.83-23.45L13.83-23.45L13.83-23.45Q12.43-23.45 11.29-22.42L11.29-22.42L11.29-22.42Q10.07-21.36 10.07-19.68L10.07-19.68L10.07-19.68Q10.07-18.62 10.81-17.80L10.81-17.80L10.81-17.80Q11.55-16.99 12.69-16.23L12.69-16.23L12.69-16.23Q13.83-15.47 15.12-14.71L15.12-14.71L15.12-14.71Q16.42-13.95 17.56-13.03L17.56-13.03L17.56-13.03Q20.18-10.94 20.18-8.13L20.18-8.13L20.18-8.13Q20.18-6.23 19.17-4.62L19.17-4.62L19.17-4.62Q18.16-3.00 16.49-1.82L16.49-1.82L16.49-1.82Q12.84 0.76 8.02 0.76L8.02 0.76L8.02 0.76Q4.10 0.76 2.09-0.51L2.09-0.51L2.09-0.51Q0.08-1.79 0.08-3.72L0.08-3.72L0.08-3.72Q0.08-7.18 2.77-8.06L2.77-8.06L2.77-8.06Q3.53-8.32 4.69-8.32L4.69-8.32L4.69-8.32Q5.85-8.32 7.18-7.83L7.18-7.83L7.18-7.83Q6.57-6.27 6.57-4.86L6.57-4.86L6.57-4.86Q6.57-1.82 8.74-1.82L8.74-1.82L8.74-1.82Q10.15-1.82 11.30-2.85L11.30-2.85L11.30-2.85Q12.46-3.88 12.46-5.04L12.46-5.04L12.46-5.04Q12.46-6.19 11.72-7.03L11.72-7.03L11.72-7.03Q10.98-7.87 9.88-8.53L9.88-8.53L9.88-8.53Q8.78-9.20 7.50-9.84L7.50-9.84L7.50-9.84Q6.23-10.49 5.13-11.40L5.13-11.40L5.13-11.40Q2.55-13.49 2.55-16.83L2.55-16.83L2.55-16.83Q2.55-19 3.61-20.69L3.61-20.69L3.61-20.69Q4.67-22.38 6.38-23.52L6.38-23.52L6.38-23.52Q9.80-25.84 14.00-25.84L14.00-25.84L14.00-25.84Q18.20-25.84 20.23-24.59L20.23-24.59L20.23-24.59Q22.27-23.33 22.27-21.20L22.27-21.20L22.27-21.20Q22.27-19.34 20.82-18.16L20.82-18.16L20.82-18.16Q19.57-17.18 18.05-17.18L18.05-17.18L18.05-17.18Q16.53-17.18 15.47-17.56ZM39.56 0.76L39.56 0.76L39.56 0.76Q34.69 0.76 34.24-6.16L34.24-6.16L27.70-6.16L27.70-6.16Q26.94-4.41 26.41-2.89L26.41-2.89L25.42 0L20.10 0L32.07-25.08L40.24-25.08L41.84-6.61L41.84-6.61Q42.22-2.62 43.74-1.44L43.74-1.44L43.74-1.44Q42.64 0.76 39.56 0.76ZM30.97-13.76L28.88-8.93L34.12-8.93L33.67-18.70L33.67-19.72L30.97-13.76ZM46.89-23.56L46.89-23.56L46.89-23.56Q47.42-24.62 48.58-25.21L48.58-25.21L48.58-25.21Q49.74-25.80 51.34-25.80L51.34-25.80L51.34-25.80Q53.85-25.80 55.35-24.00L55.35-24.00L55.35-24.00Q56.85-22.19 56.85-18.24L56.85-18.24L56.85-4.67L65.55-25.04L70.03-25.04L71.06-5.81L70.95-4.71L79.99-25.04L85.20-25.04L73.04 0L64.94 0L64.18-11.55L59.17 0L50.01 0L48.87-18.24L48.87-18.24Q48.75-20.29 48.20-21.64L48.20-21.64L48.20-21.64Q47.65-22.99 46.89-23.56ZM86.60-18.51L86.60-18.51L86.60-18.51Q85.31-19.49 85.31-21.60L85.31-21.60L85.31-21.60Q85.31-23.71 86.70-24.81L86.70-24.81L86.70-24.81Q88.08-25.92 90.48-25.92L90.48-25.92L90.48-25.92Q92.00-25.92 95.61-25.38L95.61-25.38L98.19-25.00L98.19-25.00Q99.48-24.85 100.83-24.85L100.83-24.85L100.83-24.85Q102.18-24.85 103.09-25.42L103.09-25.42L103.09-25.42Q104.46-24.21 104.46-22.46L104.46-22.46L104.46-22.46Q104.46-20.71 102.90-19.46L102.90-19.46L102.90-19.46Q101.31-18.13 99.26-18.13L99.26-18.13L99.26-18.13Q98.27-18.13 96.67-18.39L96.67-18.39L96.67-18.39Q94.81-12.54 94.81-8.47L94.81-8.47L94.81-8.47Q94.81-4.41 96.86-2.28L96.86-2.28L96.86-2.28Q95.91-0.57 94.51 0.10L94.51 0.10L94.51 0.10Q93.10 0.76 90.99 0.76L90.99 0.76L90.99 0.76Q88.88 0.76 87.57-0.40L87.57-0.40L87.57-0.40Q86.26-1.56 86.26-3.95L86.26-3.95L86.26-3.95Q86.26-6.73 87.78-11.29L87.78-11.29L87.78-11.29Q89.30-15.81 91.58-19.27L91.58-19.27L91.58-19.27Q90.48-19.38 89.34-19.38L89.34-19.38L89.34-19.38Q86.98-19.38 86.60-18.51Z" fill="url(#editing-sticker-gradient)" stroke="#000" stroke-width="2.5"></path></g></g><style>text {
  font-size: 64px;
  font-family: Arial Black;
  dominant-baseline: central;
  text-anchor: middle;
}</style></svg>