<svg width="96" height="30" viewBox="0 0 96 30" fill="none" xmlns="http://www.w3.org/2000/svg">
<path d="M15.4886 7.36364C15.3352 6.06818 14.7131 5.0625 13.6222 4.34659C12.5313 3.63068 11.1932 3.27273 9.60795 3.27273C8.44886 3.27273 7.43466 3.46023 6.56534 3.83523C5.70455 4.21023 5.03125 4.72585 4.54545 5.3821C4.06818 6.03835 3.82955 6.78409 3.82955 7.61932C3.82955 8.31818 3.99574 8.91903 4.32812 9.42188C4.66903 9.91619 5.10369 10.3295 5.6321 10.6619C6.16051 10.9858 6.71449 11.2543 7.29403 11.4673C7.87358 11.6719 8.40625 11.8381 8.89205 11.9659L11.5511 12.6818C12.233 12.8608 12.9915 13.108 13.8267 13.4233C14.6705 13.7386 15.4759 14.169 16.2429 14.7145C17.0185 15.2514 17.6577 15.9418 18.1605 16.7855C18.6634 17.6293 18.9148 18.6648 18.9148 19.892C18.9148 21.3068 18.544 22.5852 17.8026 23.7273C17.0696 24.8693 15.9957 25.777 14.581 26.4503C13.1747 27.1236 11.4659 27.4602 9.45455 27.4602C7.57955 27.4602 5.95597 27.1577 4.58381 26.5526C3.22017 25.9474 2.14631 25.1037 1.36222 24.0213C0.586648 22.9389 0.147727 21.6818 0.0454546 20.25H3.31818C3.40341 21.2386 3.7358 22.0568 4.31534 22.7045C4.90341 23.3437 5.64489 23.821 6.53977 24.1364C7.44318 24.4432 8.41477 24.5966 9.45455 24.5966C10.6648 24.5966 11.7514 24.4006 12.7145 24.0085C13.6776 23.608 14.4403 23.054 15.0028 22.3466C15.5653 21.6307 15.8466 20.7955 15.8466 19.8409C15.8466 18.9716 15.6037 18.2642 15.1179 17.7188C14.6321 17.1733 13.9929 16.7301 13.2003 16.3892C12.4077 16.0483 11.5511 15.75 10.6307 15.4943L7.40909 14.5739C5.36364 13.9858 3.74432 13.1463 2.55114 12.0554C1.35795 10.9645 0.761364 9.53693 0.761364 7.77273C0.761364 6.30682 1.15767 5.02841 1.95028 3.9375C2.75142 2.83807 3.82528 1.98579 5.17188 1.38068C6.52699 0.767045 8.03977 0.460226 9.71023 0.460226C11.3977 0.460226 12.8977 0.762783 14.2102 1.3679C15.5227 1.96449 16.5625 2.78267 17.3295 3.82244C18.1051 4.86221 18.5142 6.04261 18.5568 7.36364H15.4886ZM25.2013 0.818181L32.9741 22.858H33.2809L41.0536 0.818181H44.3775L34.7639 27H31.4911L21.8775 0.818181H25.2013ZM65.1229 9C64.8416 8.1392 64.4709 7.3679 64.0107 6.68608C63.5589 5.99574 63.0178 5.40767 62.3871 4.92188C61.7649 4.43608 61.0575 4.06534 60.2649 3.80966C59.4723 3.55398 58.603 3.42614 57.657 3.42614C56.1058 3.42614 54.6953 3.8267 53.4254 4.62784C52.1555 5.42898 51.1456 6.60938 50.3956 8.16903C49.6456 9.72869 49.2706 11.642 49.2706 13.9091C49.2706 16.1761 49.6499 18.0895 50.4084 19.6491C51.1669 21.2088 52.1939 22.3892 53.4893 23.1903C54.7848 23.9915 56.2422 24.392 57.8615 24.392C59.3615 24.392 60.6825 24.0724 61.8246 23.4332C62.9751 22.7855 63.87 21.8736 64.5092 20.6974C65.157 19.5128 65.4808 18.1193 65.4808 16.517L66.4524 16.7216H58.5774V13.9091H68.549V16.7216C68.549 18.8778 68.0888 20.7528 67.1683 22.3466C66.2564 23.9403 64.995 25.1761 63.3842 26.054C61.782 26.9233 59.9411 27.358 57.8615 27.358C55.5433 27.358 53.5064 26.8125 51.7507 25.7216C50.0036 24.6307 48.6399 23.0795 47.6598 21.0682C46.6882 19.0568 46.2024 16.6705 46.2024 13.9091C46.2024 11.8381 46.4794 9.97585 47.0334 8.32244C47.5959 6.66051 48.3885 5.24574 49.4112 4.07812C50.4339 2.91051 51.6442 2.01563 53.0419 1.39347C54.4396 0.771306 55.978 0.460226 57.657 0.460226C59.0376 0.460226 60.3246 0.669033 61.5178 1.08665C62.7195 1.49574 63.7891 2.07954 64.7266 2.83807C65.6726 3.58807 66.4609 4.48721 67.0916 5.53551C67.7223 6.57528 68.157 7.73011 68.3956 9H65.1229ZM87.1211 27V29.8125H70.7575V27H87.1211ZM95.0984 0.818181V27H91.9279V4.14205H91.7745L85.3825 8.38636V5.16477L91.9279 0.818181H95.0984Z" fill="black"/>
</svg>
